<?xml version="1.0" encoding="UTF-8"?>
<svg id="Capa_1" data-name="Capa 1" xmlns="http://www.w3.org/2000/svg" xmlns:xlink="http://www.w3.org/1999/xlink" xmlns:rdf="http://www.w3.org/1999/02/22-rdf-syntax-ns#" xmlns:dc="http://purl.org/dc/elements/1.1/" xmlns:cc="http://creativecommons.org/ns#" version="1.1" viewBox="0 0 70 70">
  <defs>
    <style>
      .cls-1 {
        filter: url(#filter2116-7);
      }

      .cls-2 {
        fill: #fc0000;
      }

      .cls-2, .cls-3, .cls-4 {
        stroke-width: 0px;
      }

      .cls-5 {
        fill: #c048d4;
        stroke-width: 4.4px;
      }

      .cls-5, .cls-6, .cls-7, .cls-8 {
        stroke-linejoin: round;
      }

      .cls-5, .cls-7 {
        stroke: #fff;
      }

      .cls-9 {
        filter: url(#filter2344-4);
        isolation: isolate;
        opacity: .7;
      }

      .cls-3 {
        fill: #86199b;
      }

      .cls-6 {
        stroke-width: 1.1px;
      }

      .cls-6, .cls-7 {
        fill: none;
      }

      .cls-6, .cls-8 {
        stroke: #000;
      }

      .cls-7 {
        stroke-width: .6px;
      }

      .cls-4, .cls-8 {
        fill: #fff;
      }
    </style>
    <filter id="filter2344-4" x="-.0040889" y="-.0061697" width="1.0082" height="1.0123">
      <feGaussianBlur stdDeviation="0.052558069"/>
    </filter>
    <filter id="filter2116-7" x="-.057576" y="-.057576" width="1.1152" height="1.1152">
      <feGaussianBlur stdDeviation="0.29717723"/>
    </filter>
  </defs>
  <g>
    <g>
      <ellipse class="cls-5" cx="35" cy="35" rx="31.4" ry="32"/>
      <g class="cls-9">
        <path class="cls-3" d="M4.3,33.9c27.3.6,40.3,16.9,49,25.4-9.8,9.9-23.9,9.2-33.4,3.3-13.6-8-15.4-17.4-15.6-28.7h0Z"/>
      </g>
      <g class="cls-1">
        <ellipse class="cls-7" cx="35" cy="35" rx="29.6" ry="30.3"/>
      </g>
      <ellipse class="cls-6" cx="35" cy="35" rx="31.4" ry="32"/>
    </g>
    <ellipse class="cls-4" cx="16.9" cy="19.2" rx="3.1" ry="1.4" transform="translate(-8.5 22.2) rotate(-55.4)"/>
    <path class="cls-4" d="M19.9,14.8c4.9-7,17.4-7.9,23.7-4.5,2.9,2.1,1.8,4.5-.7,3.5-13.7-4.7-24.7,5.6-22.9,1h0Z"/>
  </g>
  <path class="cls-8" d="M46.7,47.3c0,.7,0,1.4-.2,2.1-.2.7-.5,1.2-.8,1.6-.5.5-1.3.7-2.4.7h-.8c-.4,0-.6,0-.7,0h-14.4c-.9,0-1.5,0-1.9-.2-.3-.1-.7-.4-.9-.7h0c-.4-.5-.7-1-.8-1.7-.3-1.1-.3-2.2,0-3.4h0s.3-.7.3-.7h0c0,0,0,0,0,0,.4-1.1,1-2,1.7-2.7.5-.4,1.2-1,2.1-1.9,3.4-3,6-5.3,7.6-6.9,1.1-1.1,1.9-2.1,2.3-3,.5-1.3.4-2.5-.3-3.5-.5-.7-1.3-1.2-2.4-1.4-1.6-.4-3.2-.2-4.8.4-.2,0-.4.2-.8.3-.7.3-1.2.5-1.6.6-.8.2-1.6,0-2.3-.4-.7-.5-1.1-1.3-1.1-2.3v-.6c.1-1.2.7-2.2,1.7-3.1.4-.3.9-.6,1.5-.9h0s0,0,0,0l.6-.2h0c.5-.1,1-.3,1.5-.4,0,0,.1,0,.2,0,0,0,.2,0,.2,0h0,.6c0,0,0-.1,0-.1,1.9-.3,3.7-.4,5.6-.1,3.6.4,6.3,1.8,8.1,4,1.7,2.1,2.2,4.6,1.7,7.4h0s0,.1,0,.1v.6c-.3.9-.6,1.8-1.1,2.7-.2.4-.4.8-.8,1.3h0l-.3.5h0c-.9,1.4-2.1,2.6-3.4,3.7-.5.4-1.3.9-2.3,1.5-.6.4-1.1.7-1.4,1,0,0-.1,0-.3.2-1.9,1.3-2.8,2.1-2.7,2.6,0,0,0,0,.2,0,.8.4,1.9.6,3.5.6h4.3c1.8,0,3.2.2,4,.7.5.3.8.9.9,1.7h0Z"/>
  <path class="cls-2" d="M46.7,47.3c0,.7,0,1.4-.2,2.1-.2.7-.5,1.2-.8,1.6-.5.5-1.3.7-2.4.7h-.8c-.4,0-.6,0-.7,0h-14.4c-.9,0-1.5,0-1.9-.2-.3-.1-.7-.4-.9-.7h0c-.4-.5-.7-1-.8-1.7-.3-1.1-.3-2.2,0-3.4h0s.3-.7.3-.7h0c0,0,0,0,0,0,.4-1.1,1-2,1.7-2.7.5-.4,1.2-1,2.1-1.9,3.4-3,6-5.3,7.6-6.9,1.1-1.1,1.9-2.1,2.3-3,.5-1.3.4-2.5-.3-3.5-.5-.7-1.3-1.2-2.4-1.4-1.6-.4-3.2-.2-4.8.4-.2,0-.4.2-.8.3-.7.3-1.2.5-1.6.6-.8.2-1.6,0-2.3-.4-.7-.5-1.1-1.3-1.1-2.3v-.6c.1-1.2.7-2.2,1.7-3.1.4-.3.9-.6,1.5-.9h0s0,0,0,0l.6-.2h0c.5-.1,1-.3,1.5-.4,0,0,.1,0,.2,0,0,0,.2,0,.2,0h0,.6c0,0,0-.1,0-.1,1.9-.3,3.7-.4,5.6-.1,3.6.4,6.3,1.8,8.1,4,1.7,2.1,2.2,4.6,1.7,7.4h0s0,.1,0,.1v.6c-.3.9-.6,1.8-1.1,2.7-.2.4-.4.8-.8,1.3h0l-.3.5h0c-.9,1.4-2.1,2.6-3.4,3.7-.5.4-1.3.9-2.3,1.5-.6.4-1.1.7-1.4,1,0,0-.1,0-.3.2-1.9,1.3-2.8,2.1-2.7,2.6,0,0,0,0,.2,0,.8.4,1.9.6,3.5.6h4.3c1.8,0,3.2.2,4,.7.5.3.8.9.9,1.7h0Z"/>
</svg>