<?xml version="1.0" encoding="UTF-8"?>
<svg width="70" height="70" version="1.1" viewBox="0 0 18.521 18.521" xmlns="http://www.w3.org/2000/svg" xmlns:cc="http://creativecommons.org/ns#" xmlns:dc="http://purl.org/dc/elements/1.1/" xmlns:rdf="http://www.w3.org/1999/02/22-rdf-syntax-ns#">
 <defs>
  <filter id="filter2344-4" x="-.0040889" y="-.0061697" width="1.0082" height="1.0123" color-interpolation-filters="sRGB">
   <feGaussianBlur stdDeviation="0.052558069"/>
  </filter>
  <filter id="filter2116-7" x="-.057576" y="-.057576" width="1.1152" height="1.1152" color-interpolation-filters="sRGB">
   <feGaussianBlur stdDeviation="0.29717723"/>
  </filter>
 </defs>
 <metadata>
  <rdf:RDF>
   <cc:Work rdf:about="">
    <dc:format>image/svg+xml</dc:format>
    <dc:type rdf:resource="http://purl.org/dc/dcmitype/StillImage"/>
    <dc:title/>
   </cc:Work>
  </rdf:RDF>
 </metadata>
 <g transform="matrix(1.2945 0 0 1.3169 -138.04 -165.87)">
  <g transform="translate(-.95109 -.3767)">
   <g transform="translate(4.4404 -3.7792)">
    <g transform="matrix(.3244 0 0 .3244 67.375 88.77)">
     <circle cx="132.32" cy="149.11" r="19.792" fill="#c048d4" stroke="#fff" stroke-linejoin="round" stroke-width="4.3954" style="paint-order:markers stroke fill"/>
     <path d="m113.01 148.46c17.174 0.38456 25.392 10.468 30.849 15.736-6.1494 6.1092-15.043 5.7071-21.049 2.0213-8.5476-4.9788-9.7131-10.794-9.8003-17.757z" fill="#86199b" filter="url(#filter2344-4)" opacity=".74008"/>
     <circle transform="matrix(3.0161 0 0 3.0289 -222.73 -258.47)" cx="117.72" cy="134.56" r="6.1938" fill="none" filter="url(#filter2116-7)" stroke="#fff" stroke-linejoin="round" stroke-width=".56181" style="paint-order:markers stroke fill"/>
     <circle cx="132.32" cy="149.11" r="19.792" fill="none" stroke="#000" stroke-linejoin="round" stroke-width="1.095" style="paint-order:markers stroke fill"/>
    </g>
    <ellipse transform="rotate(35.312)" cx="164.43" cy="47.707" rx=".2755" ry=".61938" fill="#fff" style="paint-order:markers stroke fill"/>
    <path d="m107.21 133.09c0.9967-1.406 3.5588-1.5788 4.8387-0.91175 0.5965 0.42504 0.36705 0.90283-0.14831 0.708-2.7957-0.95341-5.0457 1.1269-4.6904 0.20375z" fill="#fff"/>
   </g>
  </g>
  <g transform="matrix(.91098 0 0 .91098 9.3577 9.2513)" fill="#fff" stroke="#000" stroke-linejoin="round" style="shape-inside:url(#rect2412-4-8);white-space:pre" aria-label="2">
   <path d="m117.26 138.54q0.0212 0.22225-0.0423 0.45508-0.0635 0.23284-0.1905 0.34925-0.16933 0.15875-0.53974 0.15875-0.0635 0-0.17992 0-0.13758-0.0106-0.15875-0.0106l-3.2385 0.0106q-0.29633 0-0.43392-0.0635-0.11641-0.0423-0.21166-0.14816l-0.0106-0.0106q-0.13759-0.14816-0.1905-0.35983-0.0952-0.37042-0.0106-0.74083l-0.0212 0.0106 0.0635-0.16933v-0.0212h0.0106q0.127-0.34925 0.39158-0.59266 0.15875-0.127 0.47625-0.41275 1.1536-1.0054 1.7039-1.524 0.381-0.34924 0.508-0.66674 0.16933-0.4445-0.0635-0.77258-0.16933-0.23284-0.52917-0.30692-0.52916-0.11642-1.0689 0.0952-0.0635 0.0212-0.16933 0.0635-0.23283 0.10583-0.34925 0.127-0.28575 0.0741-0.508-0.0953-0.23283-0.17992-0.254-0.49742 0-0.0635 0-0.127 0.0423-0.39158 0.39158-0.67733 0.13759-0.10583 0.32809-0.20108l0.0212-0.0106h0.0106l0.127-0.0529-0.0106 0.0106q0.15875-0.0635 0.32809-0.0952 0.0212-0.0106 0.0423-0.0106 0.0318-0.0106 0.0423-0.0106h-0.0106l0.13758-0.0212 0.0212-0.0106q0.62441-0.10584 1.2488-0.0318 1.2065 0.14816 1.8097 0.889 0.56092 0.68791 0.39158 1.6404l0.0106 0.0106-0.0106 0.0212-0.0212 0.127q-0.0741 0.30691-0.22225 0.59266-0.0635 0.127-0.16934 0.29633h0.0106l-0.0741 0.10584-0.0212 0.0212q-0.3175 0.4445-0.77258 0.79375-0.16934 0.127-0.508 0.33867-0.21167 0.13758-0.3175 0.21166-0.0106 0.0106-0.0635 0.0423-0.635 0.42333-0.60325 0.57149 0 0.0106 0.0423 0.0212 0.25399 0.11642 0.79374 0.13758 0.26459 0 0.61383 0h0.0636q0.14817 0 0.21167 0h0.0741q0.61383-0.0212 0.89958 0.15875 0.16934 0.0953 0.20109 0.381z" stroke="#000" stroke-linejoin="round"/>
  </g>
  <g transform="matrix(.91098 0 0 .91098 9.358 9.2513)" fill="#fff" style="shape-inside:url(#rect2412-4);white-space:pre" aria-label="2">
   <path d="m117.26 138.54q0.0212 0.22225-0.0423 0.45508-0.0635 0.23284-0.1905 0.34925-0.16933 0.15875-0.53974 0.15875-0.0635 0-0.17992 0-0.13758-0.0106-0.15875-0.0106l-3.2385 0.0106q-0.29633 0-0.43392-0.0635-0.11641-0.0423-0.21166-0.14816l-0.0106-0.0106q-0.13759-0.14816-0.1905-0.35983-0.0952-0.37042-0.0106-0.74083l-0.0212 0.0106 0.0635-0.16933v-0.0212h0.0106q0.127-0.34925 0.39158-0.59266 0.15875-0.127 0.47625-0.41275 1.1536-1.0054 1.7039-1.524 0.381-0.34924 0.508-0.66674 0.16933-0.4445-0.0635-0.77258-0.16933-0.23284-0.52917-0.30692-0.52916-0.11642-1.0689 0.0952-0.0635 0.0212-0.16933 0.0635-0.23283 0.10583-0.34925 0.127-0.28575 0.0741-0.508-0.0953-0.23283-0.17992-0.254-0.49742 0-0.0635 0-0.127 0.0423-0.39158 0.39158-0.67733 0.13759-0.10583 0.32809-0.20108l0.0212-0.0106h0.0106l0.127-0.0529-0.0106 0.0106q0.15875-0.0635 0.32809-0.0952 0.0212-0.0106 0.0423-0.0106 0.0318-0.0106 0.0423-0.0106h-0.0106l0.13758-0.0212 0.0212-0.0106q0.62441-0.10584 1.2488-0.0318 1.2065 0.14816 1.8097 0.889 0.56092 0.68791 0.39158 1.6404l0.0106 0.0106-0.0106 0.0212-0.0212 0.127q-0.0741 0.30691-0.22225 0.59266-0.0635 0.127-0.16934 0.29633h0.0106l-0.0741 0.10584-0.0212 0.0212q-0.3175 0.4445-0.77258 0.79375-0.16934 0.127-0.508 0.33867-0.21167 0.13758-0.3175 0.21166-0.0106 0.0106-0.0635 0.0423-0.635 0.42333-0.60325 0.57149 0 0.0106 0.0423 0.0212 0.25399 0.11642 0.79374 0.13758 0.26459 0 0.61383 0h0.0636q0.14817 0 0.21167 0h0.0741q0.61383-0.0212 0.89958 0.15875 0.16934 0.0953 0.20109 0.381z"/>
  </g>
 </g>
</svg>
