<?xml version="1.0" encoding="UTF-8"?>
<svg width="70" height="70" version="1.1" viewBox="0 0 18.521 18.521" xmlns="http://www.w3.org/2000/svg" xmlns:cc="http://creativecommons.org/ns#" xmlns:dc="http://purl.org/dc/elements/1.1/" xmlns:rdf="http://www.w3.org/1999/02/22-rdf-syntax-ns#">
 <defs>
  <filter id="filter2344-4-8" x="-.0040889" y="-.0061697" width="1.0082" height="1.0123" color-interpolation-filters="sRGB">
   <feGaussianBlur stdDeviation="0.052558069"/>
  </filter>
  <filter id="filter2116-7-3" x="-.057576" y="-.057576" width="1.1152" height="1.1152" color-interpolation-filters="sRGB">
   <feGaussianBlur stdDeviation="0.29717723"/>
  </filter>
 </defs>
 <metadata>
  <rdf:RDF>
   <cc:Work rdf:about="">
    <dc:format>image/svg+xml</dc:format>
    <dc:type rdf:resource="http://purl.org/dc/dcmitype/StillImage"/>
    <dc:title/>
   </cc:Work>
  </rdf:RDF>
 </metadata>
 <g transform="matrix(1.3169 0 0 1.2945 -154.4 -173.86)">
  <g transform="translate(9.5288 8.1015)">
   <g transform="translate(4.4404 -3.7792)">
    <g transform="matrix(.3244 0 0 .3244 67.375 88.77)">
     <circle cx="132.32" cy="149.11" r="19.792" fill="#c048d4" stroke="#fff" stroke-linejoin="round" stroke-width="4.3954" style="paint-order:markers stroke fill"/>
     <path d="m113.01 148.46c17.174 0.38456 25.392 10.468 30.849 15.736-6.1494 6.1092-15.043 5.7071-21.049 2.0213-8.5476-4.9788-9.7131-10.794-9.8003-17.757z" fill="#86199b" filter="url(#filter2344-4-8)" opacity=".74008"/>
     <circle transform="matrix(3.0161 0 0 3.0289 -222.73 -258.47)" cx="117.72" cy="134.56" r="6.1938" fill="none" filter="url(#filter2116-7-3)" stroke="#fff" stroke-linejoin="round" stroke-width=".56181" style="paint-order:markers stroke fill"/>
     <circle cx="132.32" cy="149.11" r="19.792" fill="none" stroke="#000" stroke-linejoin="round" stroke-width="1.095" style="paint-order:markers stroke fill"/>
    </g>
    <ellipse transform="rotate(35.312)" cx="164.43" cy="47.707" rx=".2755" ry=".61938" fill="#fff" style="paint-order:markers stroke fill"/>
    <path d="m107.21 133.09c0.9967-1.406 3.5588-1.5788 4.8387-0.91175 0.5965 0.42504 0.36705 0.90283-0.14831 0.708-2.7957-0.95341-5.0457 1.1269-4.6904 0.20375z" fill="#fff"/>
   </g>
  </g>
  <g transform="matrix(.91098 0 0 .91098 19.796 17.812)" fill="#fff" stroke="#000" stroke-linejoin="round" style="shape-inside:url(#rect2412-4-9-9);white-space:pre" aria-label="3">
   <path d="m117.08 138.32h0.0106l-0.0741 0.10583v0.0106h-0.0106l-0.0212 0.0318q-0.381 0.52916-1.0583 0.79375-0.635 0.25399-1.5028 0.25399-0.23283 0-0.508-0.0212-0.11641-0.0106-0.26458-0.0212l-0.0318-0.0106-0.11642-0.0106q-0.58208-0.0952-0.95249-0.30691v0.0106l-0.11642-0.0847-0.0106-0.0106v-0.0106q-0.3175-0.23283-0.39158-0.5715-0.0635-0.28575 0.0847-0.59266 0.0741-0.16934 0.1905-0.24342 0.15875-0.10583 0.381-0.0741 0.1905 0.0318 0.55033 0.17991 0.27517 0.11642 0.42333 0.14817 0.635 0.15875 1.1536 0.0106 0.3175-0.0952 0.46567-0.27516 0.1905-0.21167 0.15875-0.52917-0.0212-0.30691-0.24342-0.48683-0.29633-0.23283-0.93133-0.22225-0.0635 0-0.21166 0.0212-0.64558 0.0635-0.83608-0.11642-0.0953-0.10583-0.13759-0.30691-0.0423-0.254-0.0212-0.49742 0.0106-0.26458 0.127-0.39158 0.0318-0.0529 0.11641-0.0952v-0.0106h0.0106q0.11641-0.0741 0.24341-0.0847 0.127-0.0212 0.37042 0 0.0741 0 0.11641 0.0106 0.0635 0 0.11642 0 0.27517 0 0.45508-0.0318 0.49742-0.0847 0.62442-0.45508 0.10583-0.34925-0.13759-0.61383-0.14816-0.16933-0.4445-0.254-0.44449-0.11642-1.0266 0-0.11641 0.0212-0.33866 0.0847-0.43392 0.127-0.66675 0.11641-0.0953 0-0.14817-0.0212-0.0635-0.0423-0.12699-0.127-0.21167-0.3175-0.11642-0.6985 0.127-0.53975 0.89958-0.77258 0.51858-0.16933 1.1536-0.17992h0.0741q0.0318-0.0106 0.0741-0.0106 0.42333 0 0.83608 0.0847l0.17991 0.0317q0.0423 0.0106 0.0635 0.0212 0.6985 0.16933 1.1218 0.60325 0.0529 0.0423 0.10583 0.10583l0.0212 0.0317 0.0635 0.0741h-0.0106q0.1905 0.26458 0.28575 0.57149h0.0106l0.0212 0.0953 0.0106 0.0317q0.0318 0.13759 0.0318 0.254 0.0847 0.9525-0.8255 1.6616-0.0318 0.0317-0.0423 0.0529 0 0.0106 0.0212 0.0423 0.0317 0.0212 0.10583 0.0529 0.0635 0.0212 0.0847 0.0423 0.16933 0.0952 0.38099 0.33867 0.32809 0.40216 0.42334 0.91016 0.0318 0.13758 0.0318 0.30692v0.17995-0.0106q-0.0318 0.47625-0.27517 0.87841z" stroke="#000" stroke-linejoin="round"/>
  </g>
  <g transform="matrix(.91098 0 0 .91098 19.797 17.812)" fill="#fff" style="shape-inside:url(#rect2412-4-9);white-space:pre" aria-label="3">
   <path d="m117.08 138.32h0.0106l-0.0741 0.10583v0.0106h-0.0106l-0.0212 0.0318q-0.381 0.52916-1.0583 0.79375-0.635 0.25399-1.5028 0.25399-0.23283 0-0.508-0.0212-0.11641-0.0106-0.26458-0.0212l-0.0318-0.0106-0.11642-0.0106q-0.58208-0.0952-0.95249-0.30691v0.0106l-0.11642-0.0847-0.0106-0.0106v-0.0106q-0.3175-0.23283-0.39158-0.5715-0.0635-0.28575 0.0847-0.59266 0.0741-0.16934 0.1905-0.24342 0.15875-0.10583 0.381-0.0741 0.1905 0.0318 0.55033 0.17991 0.27517 0.11642 0.42333 0.14817 0.635 0.15875 1.1536 0.0106 0.3175-0.0952 0.46567-0.27516 0.1905-0.21167 0.15875-0.52917-0.0212-0.30691-0.24342-0.48683-0.29633-0.23283-0.93133-0.22225-0.0635 0-0.21166 0.0212-0.64558 0.0635-0.83608-0.11642-0.0953-0.10583-0.13759-0.30691-0.0423-0.254-0.0212-0.49742 0.0106-0.26458 0.127-0.39158 0.0318-0.0529 0.11641-0.0952v-0.0106h0.0106q0.11641-0.0741 0.24341-0.0847 0.127-0.0212 0.37042 0 0.0741 0 0.11641 0.0106 0.0635 0 0.11642 0 0.27517 0 0.45508-0.0318 0.49742-0.0847 0.62442-0.45508 0.10583-0.34925-0.13759-0.61383-0.14816-0.16933-0.4445-0.254-0.44449-0.11642-1.0266 0-0.11641 0.0212-0.33866 0.0847-0.43392 0.127-0.66675 0.11641-0.0953 0-0.14817-0.0212-0.0635-0.0423-0.12699-0.127-0.21167-0.3175-0.11642-0.6985 0.127-0.53975 0.89958-0.77258 0.51858-0.16933 1.1536-0.17992h0.0741q0.0318-0.0106 0.0741-0.0106 0.42333 0 0.83608 0.0847l0.17991 0.0317q0.0423 0.0106 0.0635 0.0212 0.6985 0.16933 1.1218 0.60325 0.0529 0.0423 0.10583 0.10583l0.0212 0.0317 0.0635 0.0741h-0.0106q0.1905 0.26458 0.28575 0.57149h0.0106l0.0212 0.0953 0.0106 0.0317q0.0318 0.13759 0.0318 0.254 0.0847 0.9525-0.8255 1.6616-0.0318 0.0317-0.0423 0.0529 0 0.0106 0.0212 0.0423 0.0317 0.0212 0.10583 0.0529 0.0635 0.0212 0.0847 0.0423 0.16933 0.0952 0.38099 0.33867 0.32809 0.40216 0.42334 0.91016 0.0318 0.13758 0.0318 0.30692v0.17995-0.0106q-0.0318 0.47625-0.27517 0.87841z"/>
  </g>
 </g>
</svg>
