<?xml version="1.0" encoding="UTF-8"?>
<svg width="70" height="70" version="1.1" viewBox="0 0 18.521 18.521" xmlns="http://www.w3.org/2000/svg" xmlns:cc="http://creativecommons.org/ns#" xmlns:dc="http://purl.org/dc/elements/1.1/" xmlns:rdf="http://www.w3.org/1999/02/22-rdf-syntax-ns#">
 <defs>
  <filter id="filter2344-4-4" x="-.0040889" y="-.0061697" width="1.0082" height="1.0123" color-interpolation-filters="sRGB">
   <feGaussianBlur stdDeviation="0.052558069"/>
  </filter>
  <filter id="filter2116-7-0" x="-.057576" y="-.057576" width="1.1152" height="1.1152" color-interpolation-filters="sRGB">
   <feGaussianBlur stdDeviation="0.29717723"/>
  </filter>
 </defs>
 <metadata>
  <rdf:RDF>
   <cc:Work rdf:about="">
    <dc:format>image/svg+xml</dc:format>
    <dc:type rdf:resource="http://purl.org/dc/dcmitype/StillImage"/>
    <dc:title/>
   </cc:Work>
  </rdf:RDF>
 </metadata>
 <g transform="matrix(1.2994 0 0 1.2983 -148.16 -178.59)">
  <g transform="translate(7.3589 11.713)">
   <g transform="translate(-.95109 -.3767)">
    <g transform="translate(4.4404 -3.7792)">
     <g transform="matrix(.3244 0 0 .3244 67.375 88.77)">
      <circle cx="132.32" cy="149.11" r="19.792" fill="#c048d4" stroke="#fff" stroke-linejoin="round" stroke-width="4.3954" style="paint-order:markers stroke fill"/>
      <path d="m113.01 148.46c17.174 0.38456 25.392 10.468 30.849 15.736-6.1494 6.1092-15.043 5.7071-21.049 2.0213-8.5476-4.9788-9.7131-10.794-9.8003-17.757z" fill="#86199b" filter="url(#filter2344-4-4)" opacity=".74008"/>
      <circle transform="matrix(3.0161 0 0 3.0289 -222.73 -258.47)" cx="117.72" cy="134.56" r="6.1938" fill="none" filter="url(#filter2116-7-0)" stroke="#fff" stroke-linejoin="round" stroke-width=".56181" style="paint-order:markers stroke fill"/>
      <circle cx="132.32" cy="149.11" r="19.792" fill="none" stroke="#000" stroke-linejoin="round" stroke-width="1.095" style="paint-order:markers stroke fill"/>
     </g>
     <ellipse transform="rotate(35.312)" cx="164.43" cy="47.707" rx=".2755" ry=".61938" fill="#fff" style="paint-order:markers stroke fill"/>
     <path d="m107.21 133.09c0.9967-1.406 3.5588-1.5788 4.8387-0.91175 0.5965 0.42504 0.36705 0.90283-0.14831 0.708-2.7957-0.95341-5.0457 1.1269-4.6904 0.20375z" fill="#fff"/>
    </g>
   </g>
  </g>
  <g transform="matrix(.91098 0 0 .91098 16.244 20.99)" fill="#fff" stroke="#000" stroke-linejoin="round" style="shape-inside:url(#rect2412-4-9-5-7);white-space:pre" aria-label="4">
   <path d="m118.36 136.91q0.0741 0.381-0.0423 0.64558-0.11642 0.254-0.39159 0.33867-0.0741 0.0318-0.26458 0.0318-0.33866 0.0106-0.40216 0.0952-0.0529 0.0529-0.0212 0.17992 0.0106 0.0317 0.0212 0.10583 0.0635 0.22225 0.0847 0.35983t-0.0106 0.33867q-0.0212 0.20108-0.13758 0.3175-0.1905 0.17991-0.71967 0.17991-0.1905 0-0.381-0.0212-0.48683-0.0529-0.63499-0.39158-0.0529-0.11641-0.0529-0.26458h-0.0106v-0.16928l0.0106 0.0106q0-0.0423 0.0106-0.11642 0.0212-0.20108 0.0106-0.29633 0-0.0212 0-0.0529l-0.0106-0.0106q-0.0212-0.15875-0.11641-0.21166-0.21167-0.127-0.81492-0.0529-0.17991 0.0106-0.254 0.0212-0.76199 0.0318-1.2488-0.0212h-0.0106l-0.1905-0.0212v-0.0106q-0.30692-0.0529-0.48683-0.16933-0.28575-0.20109-0.34925-0.60325l-0.0106-0.0106q0-0.0423 0-0.0635-0.0423-0.32809 0.11641-0.74084 0.21167-0.60324 0.62442-1.1324 0.42333-0.53975 1.0583-1.1853 0.1905-0.1905 0.45508-0.65616 0.20108-0.34925 0.32808-0.508 0.21167-0.26458 0.4445-0.4445 0.1905-0.127 0.39158-0.20108 0.27517-0.0952 0.60325-0.0847h0.0318q0.14817 0 0.29633 0.0317 0.55033 0.11642 0.78317 0.47625 0.0529 0.0741 0.0953 0.16933v0.0106q0.11641 0.3175 0.0847 1.0266-0.0106 0.21166-0.0106 0.30691-0.0106 0.67733-0.0318 1.3335 0 0.0423 0 0.127-0.0106 0.22225-0.0106 0.33866 0.0212 0.32809 0.1905 0.4445 0.0847 0.0529 0.254 0.0423h0.0529q0.20108-0.0212 0.29633 0.0106 0.29634 0.0847 0.37042 0.49741zm-2.8998-0.64558q0.0317-0.0635 0.0212-0.22225-0.0212-0.49741-0.0106-1.0054 0-0.0212 0.0106-0.0953 0.0423-0.68792 0-0.78316-0.0106 0-0.0106 0-0.0635 0.0106-0.14817 0.12699-0.28575 0.40217-0.61383 0.92075-0.14817 0.23283-0.381 0.61383l-0.21166 0.33867q-0.0635 0.10583-0.0635 0.15875 0 0.11641 0.22225 0.11641 0.33866 0.0106 0.95249-0.0635 0.20109-0.0212 0.23284-0.10583z" stroke="#000" stroke-linejoin="round"/>
  </g>
  <g transform="matrix(.91098 0 0 .91098 16.244 20.99)" fill="#fff" style="shape-inside:url(#rect2412-4-9-5);white-space:pre" aria-label="4">
   <path d="m118.36 136.91q0.0741 0.381-0.0423 0.64558-0.11642 0.254-0.39159 0.33867-0.0741 0.0318-0.26458 0.0318-0.33866 0.0106-0.40216 0.0952-0.0529 0.0529-0.0212 0.17992 0.0106 0.0317 0.0212 0.10583 0.0635 0.22225 0.0847 0.35983t-0.0106 0.33867q-0.0212 0.20108-0.13758 0.3175-0.1905 0.17991-0.71967 0.17991-0.1905 0-0.381-0.0212-0.48683-0.0529-0.63499-0.39158-0.0529-0.11641-0.0529-0.26458h-0.0106v-0.16928l0.0106 0.0106q0-0.0423 0.0106-0.11642 0.0212-0.20108 0.0106-0.29633 0-0.0212 0-0.0529l-0.0106-0.0106q-0.0212-0.15875-0.11641-0.21166-0.21167-0.127-0.81492-0.0529-0.17991 0.0106-0.254 0.0212-0.76199 0.0318-1.2488-0.0212h-0.0106l-0.1905-0.0212v-0.0106q-0.30692-0.0529-0.48683-0.16933-0.28575-0.20109-0.34925-0.60325l-0.0106-0.0106q0-0.0423 0-0.0635-0.0423-0.32809 0.11641-0.74084 0.21167-0.60324 0.62442-1.1324 0.42333-0.53975 1.0583-1.1853 0.1905-0.1905 0.45508-0.65616 0.20108-0.34925 0.32808-0.508 0.21167-0.26458 0.4445-0.4445 0.1905-0.127 0.39158-0.20108 0.27517-0.0952 0.60325-0.0847h0.0318q0.14817 0 0.29633 0.0317 0.55033 0.11642 0.78317 0.47625 0.0529 0.0741 0.0953 0.16933v0.0106q0.11641 0.3175 0.0847 1.0266-0.0106 0.21166-0.0106 0.30691-0.0106 0.67733-0.0318 1.3335 0 0.0423 0 0.127-0.0106 0.22225-0.0106 0.33866 0.0212 0.32809 0.1905 0.4445 0.0847 0.0529 0.254 0.0423h0.0529q0.20108-0.0212 0.29633 0.0106 0.29634 0.0847 0.37042 0.49741zm-2.8998-0.64558q0.0317-0.0635 0.0212-0.22225-0.0212-0.49741-0.0106-1.0054 0-0.0212 0.0106-0.0953 0.0423-0.68792 0-0.78316-0.0106 0-0.0106 0-0.0635 0.0106-0.14817 0.12699-0.28575 0.40217-0.61383 0.92075-0.14817 0.23283-0.381 0.61383l-0.21166 0.33867q-0.0635 0.10583-0.0635 0.15875 0 0.11641 0.22225 0.11641 0.33866 0.0106 0.95249-0.0635 0.20109-0.0212 0.23284-0.10583z"/>
  </g>
 </g>
</svg>
